<svg width="34" height="35" viewBox="0 0 34 35" fill="none" xmlns="http://www.w3.org/2000/svg">
<path d="M10.3145 18.2629C11.641 18.2629 12.6756 18.7945 13.4185 19.8579C14.2143 20.8653 14.6123 22.1245 14.6123 23.6357C14.6123 25.2588 14.0817 26.6019 13.0205 27.6653C11.9593 28.6727 10.6329 29.1764 9.04111 29.1764C7.23712 29.1764 5.75149 28.4769 4.58418 27.0776C3.41689 25.6785 2.83325 23.8595 2.83325 21.6209C2.83325 18.4867 3.78831 15.6324 5.69842 13.0579C7.60854 10.4834 10.4472 8.30072 14.2143 6.50977V8.60853C11.9859 9.67191 10.0758 11.0711 8.484 12.8061C6.89224 14.4851 6.09636 16.1641 6.09636 17.8431C6.09636 18.9624 6.38818 19.5221 6.97183 19.5221C7.07794 19.5221 7.2106 19.4941 7.36977 19.4381C7.52895 19.3262 7.68813 19.2423 7.8473 19.1862C8.64317 18.5707 9.46559 18.2629 10.3145 18.2629ZM26.8688 18.2629C28.1953 18.2629 29.23 18.7945 29.9728 19.8579C30.7686 20.8653 31.1666 22.1245 31.1666 23.6357C31.1666 25.2588 30.636 26.6019 29.5748 27.6653C28.5136 28.6727 27.1872 29.1764 25.5954 29.1764C23.7914 29.1764 22.3058 28.4769 21.1384 27.0776C19.9712 25.6785 19.3876 23.8595 19.3876 21.6209C19.3876 18.4867 20.3427 15.6324 22.2528 13.0579C24.1629 10.4834 27.0014 8.30072 30.7686 6.50977V8.60853C28.5402 9.67191 26.6301 11.0711 25.0384 12.8061C23.4466 14.4851 22.6507 16.1641 22.6507 17.8431C22.6507 18.9624 22.9426 19.5221 23.5261 19.5221C23.6322 19.5221 23.7649 19.4941 23.924 19.4381C24.0833 19.3262 24.2425 19.2423 24.4016 19.1862C25.1975 18.5707 26.0198 18.2629 26.8688 18.2629Z" fill="#FF6D2C"/>
</svg>
