<svg width="34" height="35" viewBox="0 0 34 35" fill="none" xmlns="http://www.w3.org/2000/svg">
<path d="M10.3145 18.1847C11.641 18.1847 12.6756 18.7164 13.4185 19.7798C14.2143 20.7871 14.6123 22.0464 14.6123 23.5576C14.6123 25.1807 14.0817 26.5238 13.0205 27.5871C11.9593 28.5945 10.6329 29.0983 9.04111 29.0983C7.23712 29.0983 5.75149 28.3988 4.58418 26.9995C3.41689 25.6004 2.83325 23.7814 2.83325 21.5428C2.83325 18.4086 3.78831 15.5543 5.69842 12.9798C7.60854 10.4053 10.4472 8.22259 14.2143 6.43164V8.5304C11.9859 9.59378 10.0758 10.993 8.484 12.7279C6.89224 14.4069 6.09636 16.0859 6.09636 17.765C6.09636 18.8843 6.38818 19.444 6.97183 19.444C7.07794 19.444 7.2106 19.416 7.36977 19.36C7.52895 19.2481 7.68813 19.1642 7.8473 19.1081C8.64317 18.4926 9.46559 18.1847 10.3145 18.1847ZM26.8688 18.1847C28.1953 18.1847 29.23 18.7164 29.9728 19.7798C30.7686 20.7871 31.1666 22.0464 31.1666 23.5576C31.1666 25.1807 30.636 26.5238 29.5748 27.5871C28.5136 28.5945 27.1872 29.0983 25.5954 29.0983C23.7914 29.0983 22.3058 28.3988 21.1384 26.9995C19.9712 25.6004 19.3876 23.7814 19.3876 21.5428C19.3876 18.4086 20.3427 15.5543 22.2528 12.9798C24.1629 10.4053 27.0014 8.22259 30.7686 6.43164V8.5304C28.5402 9.59378 26.6301 10.993 25.0384 12.7279C23.4466 14.4069 22.6507 16.0859 22.6507 17.765C22.6507 18.8843 22.9426 19.444 23.5261 19.444C23.6322 19.444 23.7649 19.416 23.924 19.36C24.0833 19.2481 24.2425 19.1642 24.4016 19.1081C25.1975 18.4926 26.0198 18.1847 26.8688 18.1847Z" fill="#FF6D2C"/>
</svg>
