<svg width="35" height="35" viewBox="0 0 35 35" fill="none" xmlns="http://www.w3.org/2000/svg">
<path d="M10.752 17.5441C12.0785 17.5441 13.1131 18.0758 13.856 19.1391C14.6518 20.1465 15.0498 21.4058 15.0498 22.917C15.0498 24.54 14.5192 25.8832 13.458 26.9465C12.3968 27.9539 11.0704 28.4577 9.47861 28.4577C7.67462 28.4577 6.18899 27.7581 5.02168 26.3589C3.85439 24.9598 3.27075 23.1408 3.27075 20.9022C3.27075 17.7679 4.22581 14.9136 6.13592 12.3392C8.04604 9.76468 10.8847 7.58197 14.6518 5.79102V7.88978C12.4234 8.95316 10.5133 10.3523 8.9215 12.0873C7.32974 13.7663 6.53386 15.4453 6.53386 17.1243C6.53386 18.2437 6.82568 18.8034 7.40933 18.8034C7.51544 18.8034 7.6481 18.7753 7.80727 18.7194C7.96645 18.6075 8.12563 18.5236 8.2848 18.4675C9.08067 17.8519 9.90309 17.5441 10.752 17.5441ZM27.3063 17.5441C28.6328 17.5441 29.6675 18.0758 30.4103 19.1391C31.2061 20.1465 31.6041 21.4058 31.6041 22.917C31.6041 24.54 31.0735 25.8832 30.0123 26.9465C28.9511 27.9539 27.6247 28.4577 26.0329 28.4577C24.2289 28.4577 22.7433 27.7581 21.5759 26.3589C20.4087 24.9598 19.8251 23.1408 19.8251 20.9022C19.8251 17.7679 20.7802 14.9136 22.6903 12.3392C24.6004 9.76468 27.4389 7.58197 31.2061 5.79102V7.88978C28.9777 8.95316 27.0676 10.3523 25.4759 12.0873C23.8841 13.7663 23.0882 15.4453 23.0882 17.1243C23.0882 18.2437 23.3801 18.8034 23.9636 18.8034C24.0697 18.8034 24.2024 18.7753 24.3615 18.7194C24.5208 18.6075 24.68 18.5236 24.8391 18.4675C25.635 17.8519 26.4573 17.5441 27.3063 17.5441Z" fill="#FF6D2C"/>
</svg>
