<svg width="163" height="31" viewBox="0 0 163 31" fill="none" xmlns="http://www.w3.org/2000/svg">
<g clip-path="url(#clip0_1_1362)">
<path d="M73.3857 12.7194C73.3857 9.17575 71.2209 6.91602 67.562 6.91602H61.0681V24.8911H65.4747V18.5998H67.5877C71.0921 18.5998 73.3857 16.2117 73.3857 12.7194ZM66.9692 10.6908C68.1804 10.6908 68.876 11.5125 68.876 12.7194C68.876 13.952 68.2061 14.8251 66.9175 14.8251H65.4747V10.6908H66.9692Z" fill="#080B1D"/>
<path d="M74.4058 18.1872C74.4058 22.2444 77.4466 25.2232 81.75 25.2232C86.0274 25.2232 89.1714 22.1931 89.1714 18.1359C89.1714 14.0529 86.1049 11.0742 81.75 11.0742C77.5754 11.0742 74.4058 14.1043 74.4058 18.1872ZM78.7092 18.1872C78.7092 16.21 79.9718 14.849 81.75 14.849C83.5022 14.849 84.868 16.1586 84.868 18.1359C84.868 20.0618 83.5279 21.4484 81.75 21.4484C79.9978 21.4484 78.7092 20.1388 78.7092 18.1872Z" fill="#080B1D"/>
<path d="M95.2846 25.2232C98.3768 25.2232 100.799 23.5284 100.799 20.7807C100.799 15.9018 94.563 16.8776 94.563 15.1828C94.563 14.7719 94.9238 14.5152 95.5423 14.5152C96.5989 14.5152 97.3719 15.1571 97.7841 15.568L100.567 13.3853C99.7683 12.3068 98.2994 11.0742 95.7228 11.0742C92.7851 11.0742 90.5173 12.6406 90.5173 15.2342C90.5173 20.1388 96.702 19.4711 96.702 21.0119C96.702 21.4997 96.3153 21.7566 95.4908 21.7566C94.1251 21.7566 93.223 21.2173 92.5014 20.5753L90.0793 22.9121C90.8781 23.9906 92.7077 25.2232 95.2846 25.2232Z" fill="#080B1D"/>
<path d="M107.07 8.55859H102.766V11.4089H101.452V14.8755H102.766V19.6261C102.766 23.6319 104.622 25.0956 107.817 25.0956C108.899 25.0956 109.466 24.9415 109.466 24.9415V21.2695C109.183 21.2952 108.976 21.2952 108.744 21.2952C107.868 21.2952 107.07 21.0127 107.07 19.8315V14.8755H109.363V11.4089H107.07V8.55859Z" fill="#080B1D"/>
<path d="M124.143 12.7194C124.143 9.17575 121.979 6.91602 118.319 6.91602H111.825V24.8911H116.232V18.5998H118.345C121.85 18.5998 124.143 16.2117 124.143 12.7194ZM117.727 10.6908C118.938 10.6908 119.634 11.5125 119.634 12.7194C119.634 13.952 118.963 14.8251 117.675 14.8251H116.232V10.6908H117.727Z" fill="#080B1D"/>
<path d="M130.162 11.409H125.859V24.8903H130.162V11.409ZM127.972 10.5873C129.338 10.5873 130.394 9.61149 130.394 8.27622C130.394 6.91523 129.338 5.93945 127.972 5.93945C126.606 5.93945 125.576 6.91523 125.576 8.27622C125.576 9.61149 126.606 10.5873 127.972 10.5873Z" fill="#080B1D"/>
<path d="M132.629 24.8899H136.932V6.32422H132.629V24.8899Z" fill="#080B1D"/>
<path d="M138.702 18.1872C138.702 22.2444 141.743 25.2232 146.046 25.2232C150.324 25.2232 153.468 22.1931 153.468 18.1359C153.468 14.0529 150.401 11.0742 146.046 11.0742C141.872 11.0742 138.702 14.1043 138.702 18.1872ZM143.006 18.1872C143.006 16.21 144.268 14.849 146.046 14.849C147.799 14.849 149.164 16.1586 149.164 18.1359C149.164 20.0618 147.824 21.4484 146.046 21.4484C144.294 21.4484 143.006 20.1388 143.006 18.1872Z" fill="#080B1D"/>
<path d="M159.916 8.55859H155.613V11.4089H154.298V14.8755H155.613V19.6261C155.613 23.6319 157.468 25.0956 160.663 25.0956C161.745 25.0956 162.312 24.9415 162.312 24.9415V21.2695C162.029 21.2952 161.823 21.2952 161.591 21.2952C160.715 21.2952 159.916 21.0127 159.916 19.8315V14.8755H162.209V11.4089H159.916V8.55859Z" fill="#080B1D"/>
<path fill-rule="evenodd" clip-rule="evenodd" d="M1.18866 2.12056C0.728048 1.60237 1.09591 0.783203 1.78923 0.783203H45.9582C49.8274 0.783203 52.9641 3.91982 52.9641 7.78905V23.4821C52.9641 27.3513 49.8274 30.488 45.9582 30.488H24.2625C23.2679 30.488 22.3208 30.0626 21.66 29.3194L19.4039 26.7812C18.9433 26.263 19.3111 25.4438 20.0044 25.4438H45.9582C47.0416 25.4438 47.9199 24.5655 47.9199 23.4821V7.78905C47.9199 6.70568 47.0416 5.82742 45.9582 5.82742H6.04727C5.05269 5.82742 4.1056 5.40209 3.44483 4.65875L1.18866 2.12056Z" fill="#02A99B"/>
<path fill-rule="evenodd" clip-rule="evenodd" d="M20.325 0.582031L33.2426 14.6248C33.5734 14.9846 34.1405 14.9872 34.4747 14.6305L45.842 2.49934L49.5226 5.94833L38.1557 18.0795C35.8158 20.5766 31.8469 20.5584 29.5301 18.0398L16.6125 3.99699L20.325 0.582031Z" fill="#02A99B"/>
<path fill-rule="evenodd" clip-rule="evenodd" d="M11.0093 15.0137C10.5454 14.4962 10.9127 13.6738 11.6076 13.6738H19.6784C20.418 13.6738 21.0176 14.2734 21.0176 15.013V17.3788C21.0176 18.1185 20.418 18.718 19.6784 18.718H15.2865C14.6776 18.718 14.0974 18.4589 13.6909 18.0055L11.0093 15.0137Z" fill="#02A99B"/>
</g>
<defs>
<clipPath id="clip0_1_1362">
<rect width="162.312" height="29.9984" fill="white" transform="translate(0 0.5)"/>
</clipPath>
</defs>
</svg>
