<svg width="33" height="33" viewBox="0 0 33 33" fill="none" xmlns="http://www.w3.org/2000/svg">
<path d="M27.0721 11.5715C27.089 11.8049 27.089 12.0382 27.089 12.2715C27.089 19.3882 21.59 27.5882 11.5391 27.5882C8.4426 27.5882 5.56612 26.7049 3.14648 25.1716C3.58643 25.2215 4.0094 25.2382 4.46628 25.2382C7.02124 25.2382 9.37323 24.3882 11.2514 22.9382C8.8487 22.8882 6.83515 21.3382 6.14139 19.2049C6.47983 19.2549 6.81822 19.2882 7.17358 19.2882C7.66426 19.2882 8.15499 19.2215 8.61182 19.1049C6.10759 18.6049 4.22935 16.4382 4.22935 13.8215V13.7549C4.95691 14.1549 5.803 14.4049 6.69972 14.4382C5.22764 13.4715 4.2632 11.8215 4.2632 9.95484C4.2632 8.95487 4.53388 8.0382 5.00768 7.23819C7.69807 10.5049 11.7421 12.6381 16.2768 12.8715C16.1922 12.4715 16.1414 12.0549 16.1414 11.6382C16.1414 8.67152 18.5779 6.25488 21.6067 6.25488C23.1803 6.25488 24.6017 6.90488 25.5999 7.95488C26.8351 7.72156 28.0196 7.27154 29.0686 6.65488C28.6625 7.90491 27.7996 8.95491 26.666 9.62154C27.7658 9.50492 28.8318 9.20486 29.8131 8.78823C29.0688 9.85486 28.1381 10.8048 27.0721 11.5715Z" fill="black"/>
</svg>
